<?xml version="1.0" encoding="UTF-8"?>
<svg viewBox="0 0 48 48" version="1.1" xmlns="http://www.w3.org/2000/svg" width="1182" height="2127">
<path d="M0 0 C4.86560384 -0.08940878 9.72454045 -0.05397799 14.58984375 0.05029297 C15.9680127 0.07712158 15.9680127 0.07712158 17.37402344 0.10449219 C97.97296314 1.87122095 178.83399239 19.15576179 273.58984375 64.05029297 C275.23774902 64.87231201 275.23774902 64.87231201 276.91894531 65.7109375 C311.68176683 83.13424379 344.31933029 104.65959452 374.58984375 129.05029297 C375.98396484 130.16984375 375.98396484 130.16984375 377.40625 131.31201172 C395.5962959 146.05998198 412.51884896 161.89535641 429.08984375 178.42529297 C429.70434387 179.03711426 430.31884399 179.64893555 430.95196533 180.27929688 C437.38488358 186.69094892 443.73859904 193.09500242 449.58984375 200.05029297 C450.56228865 201.16879807 451.53621952 202.28601319 452.51171875 203.40185547 C458.99438987 210.88664045 465.23211762 218.52311843 471.28271484 226.36083984 C472.54081606 227.98692509 473.80813505 229.60535951 475.078125 231.22216797 C510.82797184 277.06407684 538.99638936 328.76747265 559.58984375 383.05029297 C559.99396484 384.09781738 560.39808594 385.1453418 560.81445312 386.22460938 C578.21684413 431.48685833 588.72796313 479.59278165 593.90234375 527.73779297 C593.98374603 528.49512726 594.06514832 529.25246155 594.14901733 530.03274536 C594.67832862 535.03439211 595.18703484 540.0367117 595.58984375 545.05029297 C595.71478431 546.54979728 595.71478431 546.54979728 595.84224892 548.07959461 C596.80026821 561.17360573 596.7231952 574.25358911 596.70336914 587.37646484 C596.70308662 590.00933433 596.70320241 592.64220104 596.70381165 595.27507019 C596.70433254 600.91314676 596.70123154 606.55121164 596.69557381 612.18928528 C596.68739935 620.34069696 596.68483753 628.49210306 596.68358582 636.64351839 C596.68140458 649.87302587 596.6747698 663.10252714 596.6652832 676.33203125 C596.65608498 689.17285125 596.64902746 702.01366955 596.64477539 714.85449219 C596.64450739 715.65587754 596.6442394 716.45726289 596.64396328 717.28293264 C596.6418835 723.55156387 596.6399267 729.82019514 596.63800871 736.08882642 C596.62859831 766.74265431 596.60847452 797.39646662 596.58984375 828.05029297 C557.31984375 828.05029297 518.04984375 828.05029297 477.58984375 828.05029297 C477.55246094 809.60380859 477.51507812 791.15732422 477.4765625 772.15185547 C477.4462594 760.41226523 477.4152329 748.67268346 477.38085938 736.93310547 C477.3628153 730.75765037 477.34495225 724.58219478 477.32739258 718.40673828 C477.32518489 717.63298371 477.3229772 716.85922914 477.32070261 716.06202745 C477.28554774 703.64878747 477.26056887 691.23554752 477.23949673 678.82227655 C477.21756119 666.03711293 477.18434706 653.25201264 477.14114219 640.46690309 C477.11725077 633.30501119 477.09826324 626.14318186 477.09222984 618.98125076 C477.00633283 526.93735207 461.64176159 443.28639227 384.58984375 311.05029297 C384.1309375 310.43831055 383.67203125 309.82632812 383.19921875 309.19580078 C375.51467568 298.99683002 367.54408207 289.05962263 358.92578125 279.63232422 C357.67724861 278.25225721 356.43414978 276.86650974 355.23120117 275.4465332 C349.80371754 269.07338353 343.89105917 263.20026444 337.96557617 257.2956543 C336.15623442 255.49167212 334.35230056 253.68240632 332.54882812 251.87255859 C326.73453499 246.05420975 320.91168921 240.32292639 314.58984375 235.05029297 C313.94861572 234.50767822 313.3073877 233.96506348 312.64672852 233.40600586 C242.52086584 174.33683447 157.66312782 136.0603982 66.58984375 124.05029297 C65.53764648 123.89931152 64.48544922 123.74833008 63.40136719 123.59277344 C24.94225827 118.195923 -17.00075203 118.32962466 -55.41015625 124.05029297 C-56.61446289 124.22189941 -57.81876953 124.39350586 -59.05957031 124.5703125 C-88.50743895 128.84426386 -117.19980261 135.60366952 -145.41015625 145.05029297 C-147.00585449 145.57961426 -147.00585449 145.57961426 -148.63378906 146.11962891 C-195.99464141 161.98544051 -241.01912658 186.38195957 -280.41015625 217.05029297 C-281.51027886 217.89422264 -282.61054681 218.73796288 -283.7109375 219.58154297 C-305.31909472 236.24774758 -326.94514611 254.9639289 -344.56640625 275.86669922 C-346.10584717 277.68989303 -347.67033107 279.48054569 -349.25390625 281.26513672 C-377.19369174 312.87215185 -399.38180743 348.51594216 -418.41015625 386.05029297 C-418.80412598 386.81680176 -419.1980957 387.58331055 -419.60400391 388.37304688 C-431.97245749 412.56982308 -441.150026 438.91892784 -448.41015625 465.05029297 C-448.67876465 466.01451172 -448.94737305 466.97873047 -449.22412109 467.97216797 C-462.37316027 515.9933351 -465.72972318 564.78237731 -465.68962784 614.34724459 C-465.68789366 619.27578795 -465.69783553 624.20431169 -465.70618188 629.13284642 C-465.71920133 637.73812855 -465.72503343 646.34339119 -465.72594261 654.94868279 C-465.72732814 667.74409968 -465.74016824 680.5394879 -465.75523035 693.3348951 C-465.78025846 714.86686529 -465.79618315 736.39883302 -465.80681229 757.93081474 C-465.81735757 779.23189259 -465.83199576 800.53296081 -465.85209274 821.83403206 C-465.85302872 822.82903462 -465.85302872 822.82903462 -465.8539836 823.84413824 C-465.85968551 829.90333801 -465.86543768 835.96253773 -465.87125013 842.02173739 C-465.88569384 857.07926751 -465.89950783 872.13679817 -465.9128933 887.19432926 C-465.91350312 887.87975666 -465.91411294 888.56518407 -465.91474123 889.27138199 C-465.94429719 922.5535579 -465.96659484 955.83573812 -465.98828125 989.11791992 C-465.99580401 1000.65690109 -466.003359 1012.19588223 -466.01104736 1023.73486328 C-466.01152421 1024.45058412 -466.01200106 1025.16630495 -466.01249236 1025.90371429 C-466.03473244 1059.21837169 -466.06217257 1092.5330242 -466.0908976 1125.84767656 C-466.0927779 1128.02935198 -466.09465479 1130.21102741 -466.09653056 1132.39270284 C-466.11814997 1157.53594802 -466.14008418 1182.67919292 -466.16211003 1207.82243774 C-466.25774667 1317.23171546 -466.33233588 1426.64099818 -466.41015625 1536.05029297 C-154.89015625 1536.05029297 156.62984375 1536.05029297 477.58984375 1536.05029297 C477.58984375 1419.56029297 477.58984375 1303.07029297 477.58984375 1183.05029297 C321.82984375 1183.05029297 166.06984375 1183.05029297 5.58984375 1183.05029297 C5.58984375 1143.45029297 5.58984375 1103.85029297 5.58984375 1063.05029297 C200.61984375 1063.05029297 395.64984375 1063.05029297 596.58984375 1063.05029297 C596.58984375 1258.41029297 596.58984375 1453.77029297 596.58984375 1655.05029297 C206.52984375 1655.05029297 -183.53015625 1655.05029297 -585.41015625 1655.05029297 C-585.45140625 1477.05654297 -585.49265625 1299.06279297 -585.53515625 1115.67529297 C-585.55336426 1059.44461426 -585.57157227 1003.21393555 -585.59033203 945.27929688 C-585.59936523 876.68774414 -585.59936523 876.68774414 -585.6010437 844.59115601 C-585.60297064 821.4044478 -585.61090543 798.21775209 -585.62240716 775.03104732 C-585.63450792 750.56485946 -585.64007079 726.09867859 -585.63728072 701.63248767 C-585.63689231 698.21035753 -585.63657514 694.78822737 -585.6363008 691.36609721 C-585.63624444 690.69549305 -585.63618808 690.02488889 -585.63613001 689.33396339 C-585.63538952 678.24152062 -585.6424239 667.14909254 -585.65177144 656.05665408 C-585.65930735 646.45954938 -585.65947095 636.86246221 -585.65382693 627.26535628 C-585.65082505 621.81269967 -585.65083899 616.36009382 -585.65992141 610.90744281 C-585.70702166 580.87518752 -585.39012402 550.8354924 -581.66015625 520.98779297 C-581.53660263 519.97247498 -581.53660263 519.97247498 -581.41055298 518.93664551 C-573.02914995 450.46188673 -552.29800642 384.60371459 -521.41015625 323.05029297 C-520.88389648 322.0005127 -520.35763672 320.95073242 -519.81542969 319.86914062 C-496.27924888 273.20772821 -465.46973092 230.12042231 -429.96484375 191.82373047 C-427.72097686 189.38772819 -425.53139598 186.9149262 -423.34765625 184.42529297 C-418.84517206 179.4089383 -414.10539718 174.63646221 -409.34765625 169.86279297 C-408.59154053 169.10208496 -407.8354248 168.34137695 -407.05639648 167.55761719 C-402.90977979 163.42227951 -398.67655038 159.4552606 -394.23901367 155.6340332 C-391.63192447 153.37636565 -389.12126472 151.02595484 -386.59765625 148.67529297 C-382.00590944 144.4384288 -377.30061511 140.39623414 -372.4296875 136.47998047 C-370.20348465 134.68865036 -367.99527509 132.88290994 -365.796875 131.05810547 C-298.48036043 75.3703748 -216.41251671 35.81778571 -131.41015625 16.05029297 C-130.42589661 15.82049744 -130.42589661 15.82049744 -129.42175293 15.58605957 C-86.75912813 5.65723739 -43.77243104 0.91340365 0 0 Z " fill="#000000" transform="translate(585.41015625,471.94970703125)"/>
<path d="M0 0 C1.22170898 0.19867676 2.44341797 0.39735352 3.70214844 0.60205078 C49.4885233 8.28683962 94.79408561 23.73785576 134 49 C134.73992188 49.4753418 135.47984375 49.95068359 136.2421875 50.44042969 C167.46895081 70.63148885 198.19364985 95.39025459 221 125 C221.90932755 126.11219057 222.82235236 127.22136453 223.73828125 128.328125 C266.18616605 179.86450611 291.55478443 243.04286643 300 309 C300.11859375 309.90621094 300.2371875 310.81242187 300.359375 311.74609375 C311.79741881 403.38661142 283.46294236 497.04552654 227.68457031 569.84716797 C223.32921912 575.41318056 218.71273125 580.73593697 214 586 C213.15566406 586.95519531 212.31132813 587.91039062 211.44140625 588.89453125 C199.85230116 601.78895412 187.73702588 614.3894665 174 625 C172.86340937 625.9227397 171.72946873 626.84874947 170.59765625 627.77734375 C156.82555839 639.04042178 142.44691718 649.16933904 127 658 C126.3188916 658.39396973 125.6377832 658.78793945 124.93603516 659.19384766 C81.64258898 684.17197816 33.7710291 699.86216292 -16 705 C-16.89130615 705.0942627 -17.7826123 705.18852539 -18.70092773 705.28564453 C-29.79623953 706.30099679 -40.93018812 706.24367257 -52.0625 706.25 C-53.66428604 706.25101212 -53.66428604 706.25101212 -55.2984314 706.25204468 C-72.05374746 706.23525626 -88.42299074 705.64293584 -105 703 C-106.10424316 702.82839355 -107.20848633 702.65678711 -108.34619141 702.47998047 C-141.46057407 697.19471529 -173.78169415 687.59135243 -204 673 C-204.69738281 672.66645508 -205.39476562 672.33291016 -206.11328125 671.98925781 C-233.04758487 659.04997715 -257.69445454 643.03988662 -280.66796875 623.9375 C-283.08692102 621.92778421 -285.54425914 619.96459269 -288 618 C-288.33 763.86 -288.66 909.72 -289 1060 C-93.97 1060 101.06 1060 302 1060 C302 1099.27 302 1138.54 302 1179 C67.7 1179 -166.6 1179 -408 1179 C-408.08075728 970.21101291 -408.08075728 970.21101291 -408.09632993 890.14090192 C-408.1004121 869.20452279 -408.10458781 848.26814367 -408.10905199 827.33176462 C-408.10959167 824.79953604 -408.11012842 822.26730747 -408.11066218 819.73507889 C-408.11918671 779.40938511 -408.13418739 739.08369696 -408.15259444 698.75800658 C-408.1714875 657.29199968 -408.18377734 615.82599589 -408.18782998 574.35998477 C-408.18840624 568.49510725 -408.18905751 562.63022975 -408.18975449 556.76535225 C-408.18988933 555.61112856 -408.19002418 554.45690487 -408.19016311 553.26770471 C-408.19252101 534.73294985 -408.20178213 516.19820465 -408.21366407 497.66345372 C-408.22547816 479.00249959 -408.22992608 460.34155497 -408.22700275 441.68059724 C-408.22548857 430.61150377 -408.22947431 419.54244528 -408.24159509 408.47335817 C-408.24915828 401.05544582 -408.24928332 393.63755606 -408.24366363 386.21964208 C-408.24067714 382.0082745 -408.2406347 377.79697251 -408.24976636 373.58561229 C-408.30249096 347.7469881 -408.14948372 321.61209117 -403.875 296.0625 C-403.66327148 294.76296387 -403.45154297 293.46342773 -403.23339844 292.12451172 C-392.00957939 225.36026908 -361.68869077 162.14395173 -315.41796875 112.6015625 C-313.3701333 110.39823712 -311.39123109 108.16118417 -309.4375 105.875 C-303.5461542 99.09572409 -297.11770231 92.77657911 -290.28515625 86.94921875 C-288.52699229 85.44951992 -286.7884375 83.92680984 -285.05859375 82.39453125 C-261.39056997 61.53398105 -234.50327401 44.65606701 -206.1015625 31.01367188 C-204.70690869 30.34097176 -203.31619681 29.6600337 -201.9296875 28.97070312 C-166.88203819 11.60853737 -127.68055642 2.24292797 -89 -2 C-88.11795898 -2.103125 -87.23591797 -2.20625 -86.32714844 -2.3125 C-58.22867961 -5.16410249 -27.85299609 -4.58178904 0 0 Z M-94 119 C-94.89074219 119.16628906 -95.78148437 119.33257813 -96.69921875 119.50390625 C-144.42199416 128.69445501 -184.99610846 151.8146468 -220 185 C-220.75410156 185.7115625 -221.50820313 186.423125 -222.28515625 187.15625 C-227.67337234 192.3837837 -232.34513037 198.11934803 -237 204 C-237.7940625 204.97710938 -238.588125 205.95421875 -239.40625 206.9609375 C-246.45153174 215.81213007 -252.36126658 225.20114344 -258 235 C-258.42812988 235.73959961 -258.85625977 236.47919922 -259.29736328 237.24121094 C-271.93789658 259.35120108 -279.78271509 283.1454344 -285 308 C-285.28810547 309.32572021 -285.28810547 309.32572021 -285.58203125 310.67822266 C-291.42940641 338.86056228 -290.18377122 372.01099962 -284 400 C-283.64591064 401.60319092 -283.64591064 401.60319092 -283.28466797 403.23876953 C-271.52644791 454.41848816 -242.60108455 502.51538058 -201 535 C-200.03964844 535.77730469 -199.07929688 536.55460937 -198.08984375 537.35546875 C-188.88166882 544.6777722 -179.0861367 550.95705057 -169 557 C-168.36900391 557.37898438 -167.73800781 557.75796875 -167.08789062 558.1484375 C-145.89297201 570.66308423 -121.74451677 578.29722868 -97.75 583.25 C-97.01934326 583.40130371 -96.28868652 583.55260742 -95.53588867 583.70849609 C-81.5636164 586.40514007 -67.63929985 587.38399359 -53.4375 587.3125 C-52.65796967 587.31034485 -51.87843933 587.3081897 -51.07528687 587.30596924 C9.68484323 587.03829324 67.41900974 563.31739163 111 521 C111.57347168 520.45230957 112.14694336 519.90461914 112.73779297 519.34033203 C120.78875196 511.64084738 128.09031947 503.67282282 134.72509766 494.71923828 C135.9627098 493.05028678 137.22053819 491.39822447 138.48046875 489.74609375 C174.14478147 442.20783772 189.0432475 379.72663123 181.40844727 321.08398438 C174.91800739 275.79145336 156.96880036 233.72399746 127 199 C126.34257813 198.23171875 125.68515625 197.4634375 125.0078125 196.671875 C113.81381981 183.91494749 101.84196095 171.86357422 88 162 C87.24654297 161.46165527 86.49308594 160.92331055 85.71679688 160.36865234 C44.932697 131.55167978 -1.69894644 115.7869659 -51.6875 115.75 C-52.50880402 115.74932526 -53.33010803 115.74865051 -54.17630005 115.74795532 C-67.65159709 115.76548955 -80.73405998 116.46650469 -94 119 Z " fill="#000000" transform="translate(644,712)"/>
<path d="M0 0 C39.27 0 78.54 0 119 0 C119 78.54 119 157.08 119 238 C130.22 238.99 141.44 239.98 153 241 C159.18369284 241.71150288 165.34119758 242.43824898 171.5 243.3125 C172.24928772 243.41671265 172.99857544 243.52092529 173.77056885 243.6282959 C253.85720258 254.79331117 331.33412316 277.71110562 408.62548828 312.70703125 C409.79192871 313.25746094 410.95836914 313.80789063 412.16015625 314.375 C413.20953369 314.87773437 414.25891113 315.38046875 415.34008789 315.8984375 C417.98212126 317.19131071 417.98212126 317.19131071 421 317 C421.35078613 316.36835938 421.70157227 315.73671875 422.06298828 315.0859375 C429.70985139 301.33297865 437.48090039 287.66630949 445.4375 274.08984375 C449.1321331 267.78429581 452.78852681 261.45705564 456.4375 255.125 C457.06003662 254.04484619 457.68257324 252.96469238 458.32397461 251.85180664 C459.58576826 249.66203666 460.84740534 247.47217645 462.10888672 245.28222656 C465.23680148 239.85340058 468.36858448 234.42680719 471.5 229 C472.75001879 226.83334417 474.00001878 224.6666775 475.25 222.5 C482.75 209.5 490.25 196.5 497.75 183.5 C498.36883057 182.42733887 498.98766113 181.35467773 499.62524414 180.24951172 C500.87435518 178.08442929 502.12354129 175.91939018 503.37280273 173.75439453 C507.14402428 167.21852797 510.91235759 160.68100699 514.67871094 154.14233398 C516.53951072 150.9148737 518.40424897 147.68971502 520.26953125 144.46484375 C522.51355433 140.58385055 524.74561807 136.69651967 526.96202087 132.79968262 C528.55166723 130.00865507 530.15211801 127.22381846 531.75 124.4375 C532.33467041 123.40157715 532.91934082 122.3656543 533.52172852 121.29833984 C534.06627686 120.35297363 534.6108252 119.40760742 535.171875 118.43359375 C535.6472168 117.59884521 536.12255859 116.76409668 536.61230469 115.90405273 C538 114 538 114 541 113 C543.5300293 114.13305664 543.5300293 114.13305664 546.57421875 115.91015625 C548.26901367 116.88952148 548.26901367 116.88952148 549.99804688 117.88867188 C551.22797214 118.61309868 552.45778702 119.33771292 553.6875 120.0625 C554.9597567 120.80234404 556.23254996 121.54126609 557.50585938 122.27929688 C560.73790504 124.1557762 563.96304339 126.04376935 567.18597412 127.93585205 C569.85675193 129.50258975 572.53190086 131.06180249 575.20703125 132.62109375 C578.10911821 134.31324938 581.01068248 136.00625086 583.91015625 137.70288086 C595.1059776 144.24951152 606.37594025 150.66587646 617.64404297 157.08691406 C622.84844368 160.05371779 628.04917096 163.02694111 633.25 166 C634.96352265 166.97919994 636.67706217 167.95837037 638.390625 168.9375 C639.59375 169.625 640.796875 170.3125 642 171 C641.40500425 175.13998234 640.02258169 178.09334263 637.9296875 181.69921875 C637.28821777 182.81264648 636.64674805 183.92607422 635.98583984 185.07324219 C635.28235636 186.27807059 634.57873958 187.48282116 633.875 188.6875 C633.14859988 189.94265708 632.42286091 191.198197 631.69775391 192.45410156 C630.20318775 195.04038086 628.70477169 197.62436857 627.203125 200.20654297 C625.15662755 203.72703244 623.12325274 207.25484038 621.09375 210.78515625 C614.55450113 222.15735475 607.96207472 233.49754637 601.33935547 244.82128906 C596.84472573 252.52024834 592.41400101 260.25468246 588 268 C582.4599827 277.72115617 576.86625191 287.40894658 571.21655273 297.06689453 C565.06233258 307.59084625 558.97630004 318.15380137 552.89111328 328.71777344 C549.76319852 334.14659942 546.63141552 339.57319281 543.5 345 C542.24998121 347.16665583 540.99998122 349.3333225 539.75 351.5 C527.25 373.16666667 514.75 394.83333333 502.25 416.5 C501.6310083 417.5729834 501.0120166 418.6459668 500.37426758 419.75146484 C499.12693452 421.91337884 497.8793767 424.07516317 496.6315918 426.23681641 C493.46391168 431.72514585 490.30043239 437.21582533 487.14453125 442.7109375 C479.56802393 455.89273456 471.8863723 469.00097526 464 482 C461.18106626 480.64780933 458.58038749 479.1407748 455.97265625 477.41796875 C455.19188721 476.90500244 454.41111816 476.39203613 453.60668945 475.86352539 C452.76710693 475.31043701 451.92752441 474.75734863 451.0625 474.1875 C374.70981169 424.32097493 290.77199831 388.35429087 74 356 C72.88689453 355.97808594 71.77378906 355.95617187 70.62695312 355.93359375 C-12.91602335 354.52951011 -96.07261015 368.29637534 -248 426 C-249.13920898 426.54769043 -250.27841797 427.09538086 -251.45214844 427.65966797 C-267.18616234 435.26624986 -282.42621378 443.46410733 -297.40917969 452.45703125 C-299.69912698 453.82081441 -302.00200134 455.15398474 -304.3203125 456.46875 C-314.91650961 462.50504516 -325.01255851 469.2504487 -335.08911133 476.10839844 C-335.66329803 476.49689972 -336.23748474 476.885401 -336.82907104 477.28567505 C-338.40985506 478.35568857 -339.98713649 479.43087131 -341.56420898 480.50634766 C-344 482 -344 482 -346 482 C-346.40613525 481.2879541 -346.81227051 480.5759082 -347.23071289 479.84228516 C-356.49191534 463.60954545 -365.7907986 447.39940195 -375.14111328 431.21777344 C-378.26324605 425.81329355 -381.38141204 420.40652588 -384.5 415 C-385.74998122 412.8333225 -386.99998121 410.66665583 -388.25 408.5 C-395.75 395.5 -395.75 395.5 -397.62524414 392.24951172 C-398.87435518 390.08442929 -400.12354129 387.91939018 -401.37280273 385.75439453 C-404.51202309 380.31384294 -407.64990563 374.87252784 -410.78515625 369.4296875 C-416.80747329 358.97793801 -422.84669337 348.53700452 -428.9375 338.125 C-434.35921178 328.85500223 -439.70204915 319.54168248 -445.01922607 310.21154785 C-450.22045129 301.0871716 -455.48027878 291.99867226 -460.78344727 282.93310547 C-466.93766742 272.40915375 -473.02369996 261.84619863 -479.10888672 251.28222656 C-482.85946399 244.77270411 -486.61501989 238.2660522 -490.37036133 231.75927734 C-493.52385162 226.29465337 -496.6746704 220.82852098 -499.8203125 215.359375 C-500.76583984 213.71690796 -500.76583984 213.71690796 -501.73046875 212.04125977 C-502.98152302 209.86787541 -504.23154369 207.69389571 -505.48046875 205.51928711 C-508.55813352 200.17462166 -511.67372089 194.85843928 -514.8671875 189.58203125 C-515.47868652 188.5672168 -516.09018555 187.55240234 -516.72021484 186.50683594 C-517.88089235 184.58670279 -519.05010972 182.67169821 -520.22900391 180.76269531 C-520.74124512 179.91416992 -521.25348633 179.06564453 -521.78125 178.19140625 C-522.4628418 177.08067749 -522.4628418 177.08067749 -523.15820312 175.94750977 C-524 174 -524 174 -523 171 C-520.91235352 169.52050781 -520.91235352 169.52050781 -518.12890625 167.953125 C-516.57526367 167.06850586 -516.57526367 167.06850586 -514.99023438 166.16601562 C-513.85908203 165.53373047 -512.72792969 164.90144531 -511.5625 164.25 C-510.38161359 163.58104434 -509.20128302 162.9111066 -508.02148438 162.24023438 C-505.56741044 160.84578107 -503.11098596 159.45560687 -500.65283203 158.06835938 C-495.07920613 154.91832901 -489.54136975 151.70631117 -484 148.5 C-481.83873489 147.25226941 -479.6772757 146.00487494 -477.515625 144.7578125 C-476.44376953 144.13938477 -475.37191406 143.52095703 -474.26757812 142.88378906 C-470.96600319 140.98040053 -467.66287466 139.07973325 -464.359375 137.1796875 C-462.15620369 135.91153879 -459.95307831 134.64331027 -457.75 133.375 C-456.15079712 132.45545532 -456.15079712 132.45545532 -454.51928711 131.51733398 C-449.18205992 128.44109767 -443.86620325 125.33458951 -438.58203125 122.16796875 C-437.5672168 121.56098145 -436.55240234 120.95399414 -435.50683594 120.32861328 C-433.58855563 119.17796322 -431.67365266 118.02165794 -429.76269531 116.85888672 C-428.91416992 116.34986816 -428.06564453 115.84084961 -427.19140625 115.31640625 C-426.45092041 114.86724854 -425.71043457 114.41809082 -424.94750977 113.95532227 C-423 113 -423 113 -420 113 C-419.67950684 113.57105469 -419.35901367 114.14210938 -419.02880859 114.73046875 C-412.24037143 126.81374282 -405.37311092 138.84560648 -398.37231445 150.80712891 C-392.16403197 161.41646789 -386.02671226 172.06628503 -379.89111328 182.71777344 C-376.76319852 188.14659942 -373.63141552 193.57319281 -370.5 199 C-369.24998121 201.16665583 -367.99998122 203.3333225 -366.75 205.5 C-366.13125 206.5725 -365.5125 207.645 -364.875 208.75 C-329.25 270.5 -329.25 270.5 -327.37182617 273.75585938 C-326.13281961 275.90323373 -324.89340497 278.05037267 -323.65356445 280.19726562 C-320.7127388 285.2907183 -317.77627381 290.38655143 -314.85409546 295.49072266 C-313.46781169 297.9115662 -312.07921453 300.33107889 -310.69042969 302.75048828 C-309.70671796 304.46647617 -308.72637165 306.18439193 -307.74609375 307.90234375 C-307.153125 308.93488281 -306.56015625 309.96742188 -305.94921875 311.03125 C-305.42674561 311.94455078 -304.90427246 312.85785156 -304.3659668 313.79882812 C-303.05673618 316.09524595 -303.05673618 316.09524595 -301 318 C-300.49178711 317.74532959 -299.98357422 317.49065918 -299.45996094 317.22827148 C-224.26461919 279.82032119 -142.13318778 256.25906211 -59.1875 244.1875 C-57.75460129 243.97548447 -57.75460129 243.97548447 -56.29275513 243.75918579 C-37.56137891 241.01529197 -18.91456006 239.62124801 0 238 C0 159.46 0 80.92 0 0 Z " fill="#000000" transform="translate(532,0)"/>
</svg>
